<svg width="16" height="15" viewBox="0 0 16 15" fill="none" xmlns="http://www.w3.org/2000/svg">
<path d="M0.5 2.3099C0.5 1.31032 1.31032 0.5 2.3099 0.5H13.0901C14.0897 0.5 14.9 1.31032 14.9 2.3099C14.9 2.99756 14.6391 3.65959 14.1699 4.1623L10.3979 8.20369C10.0522 8.57403 9.86 9.06174 9.86 9.56833V12.122C9.86 12.5007 9.646 12.847 9.30721 13.0164L6.98721 14.1764C6.32231 14.5088 5.54 14.0253 5.54 13.282V9.56833C5.54 9.06174 5.34776 8.57403 5.00211 8.20369L1.23015 4.1623C0.760949 3.65959 0.5 2.99756 0.5 2.3099Z" stroke="#F9FAFB"/>
</svg>
