<svg width="24" height="24" viewBox="0 0 24 24" fill="none" xmlns="http://www.w3.org/2000/svg">
<rect width="24" height="24" rx="12" fill="#53A8F3"/>
<path fill-rule="evenodd" clip-rule="evenodd" d="M12.4188 6.09983C13.1491 5.38824 14.1301 4.99316 15.1493 5.00009C16.1685 5.00702 17.144 5.4154 17.8647 6.13685C18.5853 6.8583 18.9931 7.83478 18.9999 8.85497C19.0067 9.87515 18.6118 10.857 17.9008 11.5879L17.8916 11.5963L16.0031 13.4866C15.6101 13.8801 15.1371 14.1844 14.6163 14.3789C14.0954 14.5734 13.5388 14.6535 12.9843 14.6138C12.4298 14.574 11.8904 14.4154 11.4025 14.1486C10.9146 13.8819 10.4898 13.5132 10.1567 13.0676C10.0969 12.991 10.053 12.9033 10.0275 12.8095C10.002 12.7157 9.99549 12.6177 10.0083 12.5214C10.0211 12.425 10.0531 12.3322 10.1022 12.2483C10.1513 12.1645 10.2167 12.0913 10.2945 12.0331C10.3722 11.9749 10.4608 11.9328 10.5551 11.9093C10.6493 11.8857 10.7473 11.8813 10.8433 11.8962C10.9392 11.9111 11.0313 11.945 11.114 11.996C11.1967 12.047 11.2684 12.1139 11.3249 12.193C11.5325 12.471 11.7975 12.701 12.1019 12.8675C12.4062 13.0339 12.7428 13.1329 13.0887 13.1577C13.4346 13.1825 13.7818 13.1325 14.1067 13.0111C14.4316 12.8897 14.7267 12.6998 14.9718 12.4542L16.8553 10.5681C17.2946 10.1114 17.5374 9.50034 17.5314 8.86633C17.5254 8.23232 17.2711 7.62599 16.8231 7.17771C16.3752 6.72943 15.7694 6.47501 15.1359 6.46915C14.5025 6.46329 13.8921 6.70646 13.436 7.14638L12.3571 8.22046C12.2188 8.3511 12.035 8.42254 11.8449 8.41956C11.6548 8.41658 11.4733 8.33942 11.3392 8.20451C11.2051 8.0696 11.1289 7.88761 11.1268 7.69729C11.1247 7.50698 11.197 7.32338 11.3282 7.1856L12.4188 6.09983ZM9.38384 9.6217C10.1687 9.32857 11.0274 9.2978 11.8312 9.53401C12.635 9.77021 13.3408 10.2607 13.8428 10.932C13.9003 11.0087 13.9421 11.0961 13.9659 11.189C13.9897 11.282 13.9949 11.3787 13.9813 11.4737C13.9677 11.5687 13.9356 11.66 13.8867 11.7426C13.8378 11.8251 13.7732 11.8972 13.6965 11.9547C13.6198 12.0123 13.5325 12.0541 13.4397 12.0779C13.3468 12.1017 13.2502 12.1069 13.1553 12.0933C13.0604 12.0797 12.9692 12.0475 12.8867 11.9986C12.8042 11.9497 12.7322 11.885 12.6747 11.8083C12.4671 11.5303 12.2022 11.3004 11.898 11.1339C11.5937 10.9675 11.2573 10.8685 10.9115 10.8436C10.5657 10.8188 10.2186 10.8686 9.8937 10.9899C9.56884 11.1111 9.27382 11.3008 9.02865 11.5462L7.14433 13.4323C6.70911 13.8897 6.4698 14.4993 6.47749 15.131C6.48519 15.7626 6.73928 16.3662 7.18551 16.8128C7.63174 17.2595 8.23475 17.5138 8.86577 17.5215C9.49679 17.5292 10.1058 17.2897 10.5628 16.854L11.635 15.7816C11.7027 15.7138 11.7831 15.66 11.8717 15.6232C11.9602 15.5865 12.055 15.5676 12.1508 15.5675C12.2466 15.5675 12.3415 15.5863 12.4301 15.623C12.5186 15.6597 12.599 15.7134 12.6668 15.7812C12.7346 15.849 12.7884 15.9295 12.8251 16.0181C12.8618 16.1067 12.8807 16.2016 12.8807 16.2975C12.8807 16.3934 12.8619 16.4884 12.8253 16.577C12.7887 16.6656 12.7349 16.7461 12.6672 16.814L11.59 17.8914L11.5817 17.8998C10.8514 18.6115 9.87051 19.0067 8.8513 18.9999C7.83208 18.9931 6.85653 18.5849 6.13577 17.8636C5.415 17.1422 5.00701 16.1658 5.00009 15.1456C4.99317 14.1254 5.38787 13.1436 6.09878 12.4125L6.10795 12.4041L7.99644 10.5138C8.38932 10.1201 8.8622 9.81557 9.38301 9.62086" fill="white"/>
</svg>
